<svg xmlns="http://www.w3.org/2000/svg" viewBox="0 0 496.56 64.33"><title>logo-name</title><g id="Layer_2" data-name="Layer 2"><g id="Layer_1-2" data-name="Layer 1"><path d="M0,1.38H23.22a25.05,25.05,0,0,1,8.94,1.5,19.06,19.06,0,0,1,6.67,4.17A17.87,17.87,0,0,1,43,13.37a22,22,0,0,1,1.42,8,15.46,15.46,0,0,1-1,5.59,19,19,0,0,1-2.67,4.77,20.19,20.19,0,0,1-3.91,3.87A23.87,23.87,0,0,1,32,38.36v.77l16.08,23V63H32.77L17.2,40.76H13.42V63H0Zm23.22,27a7.57,7.57,0,0,0,5.68-2.11A7.16,7.16,0,0,0,31,21.07,7.4,7.4,0,0,0,29,15.87q-1.93-2.11-5.8-2.11h-9.8V28.38Z"/><path d="M93.65,52.72a23.39,23.39,0,0,1-8.12,8.51,22.74,22.74,0,0,1-12.17,3.1,24.09,24.09,0,0,1-9.08-1.68A22.09,22.09,0,0,1,57,58a21.24,21.24,0,0,1-4.82-7.09,22.87,22.87,0,0,1-1.72-9,22,22,0,0,1,1.72-8.64A22.36,22.36,0,0,1,57,26.1a23.64,23.64,0,0,1,7.14-4.86,21.81,21.81,0,0,1,8.9-1.8,23.2,23.2,0,0,1,9.25,1.72,18.76,18.76,0,0,1,6.66,4.68,20.07,20.07,0,0,1,4,7,26.34,26.34,0,0,1,1.37,8.56c0,.46,0,.91,0,1.37A11.83,11.83,0,0,1,94.17,44a7.52,7.52,0,0,0-.09,1.11H63a9.22,9.22,0,0,0,3.87,6A11.71,11.71,0,0,0,73.44,53a10.74,10.74,0,0,0,6-1.55,11.43,11.43,0,0,0,3.74-4ZM82.22,36.29a7.81,7.81,0,0,0-2.63-4.43,9.62,9.62,0,0,0-2.84-1.63A10.3,10.3,0,0,0,73,29.58a9.86,9.86,0,0,0-9.37,6.71Z"/><path d="M142.93,52.2a23.61,23.61,0,0,1-8.21,8.9,22.86,22.86,0,0,1-12.43,3.23,24,24,0,0,1-9.07-1.68A22.1,22.1,0,0,1,106,58a20.71,20.71,0,0,1-4.73-7.1,23.91,23.91,0,0,1-1.67-9,23.91,23.91,0,0,1,1.67-9A20.66,20.66,0,0,1,106,25.76a22.13,22.13,0,0,1,7.23-4.65,24.23,24.23,0,0,1,9.07-1.67,23.38,23.38,0,0,1,12.43,3.18,19.18,19.18,0,0,1,7.69,8.77l-11.86,5a9.8,9.8,0,0,0-3.31-3.7,9.26,9.26,0,0,0-4.95-1.2,9.51,9.51,0,0,0-7,2.79,10.29,10.29,0,0,0-2.79,7.61,10.29,10.29,0,0,0,2.79,7.61,9.48,9.48,0,0,0,7,2.8A9.66,9.66,0,0,0,127.45,51,10.66,10.66,0,0,0,131.06,47Z"/><path d="M149.38,20.81h12v5.33h.86a15,15,0,0,1,4.9-4.73A14,14,0,0,1,178.28,20a13.33,13.33,0,0,1,2.84,1.27l-3.36,11.5a11.31,11.31,0,0,0-2.36-1,12.52,12.52,0,0,0-3.23-.34,8.64,8.64,0,0,0-7.35,3.35,14.18,14.18,0,0,0-2.54,8.77V63h-12.9Z"/><path d="M215.34,57.62h-.86q-4.3,6.71-12.9,6.71-7.91,0-11.78-5.08t-3.87-13.33V20.81h12.9V44.46a9.2,9.2,0,0,0,1.63,5.64,5.92,5.92,0,0,0,5.08,2.19,7.54,7.54,0,0,0,6.66-3.36,15.3,15.3,0,0,0,2.28-8.77V20.81h12.9V63h-12Z"/><path d="M244.15,16.86a7.76,7.76,0,0,1-3.18-.65,8.2,8.2,0,0,1-2.54-1.72A8.38,8.38,0,0,1,236.71,12a7.76,7.76,0,0,1-.64-3.18,7.91,7.91,0,0,1,.64-3.14,8.32,8.32,0,0,1,1.72-2.58A8.38,8.38,0,0,1,241,1.33a7.76,7.76,0,0,1,3.18-.64,7.87,7.87,0,0,1,3.14.64,8.32,8.32,0,0,1,2.58,1.72,8.15,8.15,0,0,1,1.72,2.58,7.92,7.92,0,0,1,.65,3.14,7.76,7.76,0,0,1-.65,3.18,8,8,0,0,1-4.3,4.26A7.88,7.88,0,0,1,244.15,16.86ZM237.7,63V20.81h12.9V63Z"/><path d="M265.14,31.65h-7.4V20.81h7.4V7.91H278v12.9h10.4V31.65H278V46.33a9.51,9.51,0,0,0,.34,2.63,4.29,4.29,0,0,0,1.2,2,4.85,4.85,0,0,0,3.36,1.16,6.83,6.83,0,0,0,2.32-.35,6,6,0,0,0,1.63-.86l3.62,11.18a25.53,25.53,0,0,1-4.82,1.64,24.21,24.21,0,0,1-5.5.6q-6.79,0-10.75-4a14.26,14.26,0,0,1-3.19-5.23,20.47,20.47,0,0,1-1.11-6.9Z"/><path d="M369.71,53Q360.25,64.32,345,64.33a32.55,32.55,0,0,1-12.81-2.5,31.77,31.77,0,0,1-19.61-29.67A31.69,31.69,0,0,1,332.22,2.49,32.73,32.73,0,0,1,345,0a30.82,30.82,0,0,1,13.11,2.58,32.46,32.46,0,0,1,10.11,7.48l-9.37,9.12a21,21,0,0,0-5.77-4.6,16.21,16.21,0,0,0-8-1.85,20.44,20.44,0,0,0-7.53,1.37,17.69,17.69,0,0,0-6.06,4,18.43,18.43,0,0,0-4,6.15A20.7,20.7,0,0,0,326,32.16a20.71,20.71,0,0,0,1.47,8,18.43,18.43,0,0,0,4,6.15,17.52,17.52,0,0,0,6.06,3.95,20.24,20.24,0,0,0,7.53,1.38,17.46,17.46,0,0,0,8.51-2A21.67,21.67,0,0,0,360.17,44Z"/><path d="M379,1.38h23.22a25.05,25.05,0,0,1,8.94,1.5,19.06,19.06,0,0,1,6.67,4.17A18,18,0,0,1,422,13.37a22,22,0,0,1,1.42,8,15.68,15.68,0,0,1-1,5.59,19,19,0,0,1-2.67,4.77,20.19,20.19,0,0,1-3.91,3.87,23.87,23.87,0,0,1-4.82,2.8v.77l16.08,23V63h-15.3L396.2,40.76h-3.78V63H379Zm23.22,27a7.57,7.57,0,0,0,5.68-2.11,7.16,7.16,0,0,0,2.06-5.2,7.4,7.4,0,0,0-1.94-5.2q-1.93-2.11-5.8-2.11h-9.8V28.38Z"/><path d="M434.13,1.38h13.24l17.54,30.1h.86l17.55-30.1h13.24V63H483.32V35.69l.86-10.32h-.86l-14,24.51h-7.91l-14-24.51h-.86l.86,10.32V63H434.13Z"/></g></g></svg>