<svg xmlns="http://www.w3.org/2000/svg" viewBox="0 0 336.45 314.13"><defs><style>.cls-1{fill:#22d3d4;}.cls-2{fill:#4646de;}</style></defs><title>velox-icon</title><g id="Layer_2" data-name="Layer 2"><g id="Layer_1-2" data-name="Layer 1"><path class="cls-1" d="M336.44,73.94a68.58,68.58,0,0,1-9.43,35.9q-48.36,84-96.94,167.92A73.55,73.55,0,0,1,95,257.38c-4.34-18.74-2-36.72,7.69-53.46q48.14-83.61,96.48-167.08a73.26,73.26,0,0,1,77.55-35.5c30.59,5.9,53.81,29.93,58.86,61.1C336.22,66.22,336.18,70.1,336.44,73.94Z"/><path class="cls-2" d="M77.66,227.21c-1.17-1.7-1.74-2.41-2.18-3.18C53.57,186.12,31.57,148.28,9.82,110.28-14.92,67,9.28,11.93,57.9,2,88.46-4.33,114.52,5,133,30.44c18.24,25.12,19.55,52.6,4.77,79.84-14.53,26.77-30.2,52.92-45.58,79.22C85.47,201,79.82,212.71,77.66,227.21Z"/></g></g></svg>