<svg xmlns="http://www.w3.org/2000/svg" viewBox="0 0 557.36 159.84"><defs><style>.cls-1{fill:#fff;}.cls-2{fill:#4646de;}.cls-3{fill:#22d3d4;}</style></defs><title>velox-logo-white</title><g id="Layer_2" data-name="Layer 2"><g id="Layer_1-2" data-name="Layer 1"><path class="cls-1" d="M30.48.48,69.7,111.64,100,27.82C108.24,4.74,121.91-2,140.29.48L83.82,156.91H55.13L0,.48Z"/><path class="cls-1" d="M174.13,84.07c9.19,7.85,22.64,7.17,33.84,6.05,28.47-2.46,14.12-29.8-9.86-28.46-17,.9-32.27,15.24-32.72,35.41-.44,16.81,9.42,33.62,25.33,36.3a37.74,37.74,0,0,0,33.39-11l23.53,11.43c-12.1,18.16-28.91,25.55-50.42,25.55-60.06,0-75.75-69.7-43-104,11.88-12.78,28.91-17.71,45.49-17.71,55.36,0,67.46,62.75,20.17,74.4C187.58,120.15,165.17,106.26,174.13,84.07Z"/><path class="cls-1" d="M296.72,156.91H268.48v-134c0-14.34,11-23.08,28.24-22.86Z"/><path class="cls-2" d="M428.72,129.34c-19.5,34.29-67.45,41.24-95.92,12.77a61.39,61.39,0,0,1-15.46-60.73c8.07-26.22,51.55-24.2,54.24,1.12-9.19-6.5-27.35-.67-27.57,16.81.22,44.82,63.42,44.37,63.42-.45,0-23.08-17.7-37-38.54-32.72-8.74-10.53-27.35-13.22-40.34-5.38,11.87-14.34,28.23-22.63,46.83-22.63C422.45,38.13,452.25,88.33,428.72,129.34Z"/><path class="cls-3" d="M473.32,41l22.86,31.6,15.46-21.29C521.5,37.68,536.29,37,552.43,41L513,95.5l44.37,61.41H523.52L496,119l-27.34,37.88H435.22l44.15-61L439.48,41Z"/></g></g></svg>